<svg width="55" height="55" viewBox="0 0 55 55" fill="none" xmlns="http://www.w3.org/2000/svg">
<path d="M8.59375 13.75H5.15625C4.70041 13.75 4.26324 13.5689 3.94091 13.2466C3.61858 12.9243 3.4375 12.4871 3.4375 12.0312C3.4375 11.5754 3.61858 11.1382 3.94091 10.8159C4.26324 10.4936 4.70041 10.3125 5.15625 10.3125H18.9062V5.15625C18.9062 4.70041 19.0873 4.26324 19.4097 3.94091C19.732 3.61858 20.1692 3.4375 20.625 3.4375H34.375C34.8308 3.4375 35.268 3.61858 35.5903 3.94091C35.9127 4.26324 36.0938 4.70041 36.0938 5.15625V10.3125H49.8438C50.2996 10.3125 50.7368 10.4936 51.0591 10.8159C51.3814 11.1382 51.5625 11.5754 51.5625 12.0312C51.5625 12.4871 51.3814 12.9243 51.0591 13.2466C50.7368 13.5689 50.2996 13.75 49.8438 13.75H46.4062V49.8438C46.4062 50.2996 46.2252 50.7368 45.9028 51.0591C45.5805 51.3814 45.1433 51.5625 44.6875 51.5625H10.3125C9.85666 51.5625 9.41949 51.3814 9.09716 51.0591C8.77483 50.7368 8.59375 50.2996 8.59375 49.8438V13.75ZM32.6562 10.3125V6.875H22.3438V10.3125H32.6562ZM12.0312 48.125H42.9688V13.75H12.0312V48.125ZM22.3438 41.25C21.8879 41.25 21.4507 41.0689 21.1284 40.7466C20.8061 40.4243 20.625 39.9871 20.625 39.5312V22.3438C20.625 21.8879 20.8061 21.4507 21.1284 21.1284C21.4507 20.8061 21.8879 20.625 22.3438 20.625C22.7996 20.625 23.2368 20.8061 23.5591 21.1284C23.8814 21.4507 24.0625 21.8879 24.0625 22.3438V39.5312C24.0625 39.9871 23.8814 40.4243 23.5591 40.7466C23.2368 41.0689 22.7996 41.25 22.3438 41.25ZM32.6562 41.25C32.2004 41.25 31.7632 41.0689 31.4409 40.7466C31.1186 40.4243 30.9375 39.9871 30.9375 39.5312V22.3438C30.9375 21.8879 31.1186 21.4507 31.4409 21.1284C31.7632 20.8061 32.2004 20.625 32.6562 20.625C33.1121 20.625 33.5493 20.8061 33.8716 21.1284C34.1939 21.4507 34.375 21.8879 34.375 22.3438V39.5312C34.375 39.9871 34.1939 40.4243 33.8716 40.7466C33.5493 41.0689 33.1121 41.25 32.6562 41.25Z" fill="black"/>
</svg>
