<svg width="114" height="114" viewBox="0 0 114 114" fill="none" xmlns="http://www.w3.org/2000/svg">
<path d="M7.6 15C7.6 15 0 15 0 22.6V61.8008C0 74.9488 2.6904 91 26.6 91H30.4V68.2L11.4 75.8C11.4 75.8 11.4 56.8 30.4 56.8V45.4C30.4 40.0192 31.0612 35.368 34.2 31.91C37.0956 28.718 41.838 22.3492 54.3856 28.3304L60.8 32.5028V22.6C60.8 22.6 60.8 15 53.2 15C47.8192 15 38.1672 22.6 30.4 22.6C22.6328 22.6 13.5812 15 7.6 15ZM15.2 30.2C17.2156 30.2 19.1487 31.0007 20.574 32.426C21.9993 33.8513 22.8 35.7844 22.8 37.8C22.8 39.8156 21.9993 41.7487 20.574 43.174C19.1487 44.5993 17.2156 45.4 15.2 45.4C13.1844 45.4 11.2513 44.5993 9.82599 43.174C8.40071 41.7487 7.6 39.8156 7.6 37.8C7.6 35.7844 8.40071 33.8513 9.82599 32.426C11.2513 31.0007 13.1844 30.2 15.2 30.2ZM45.6 37.8C45.6 37.8 38 37.8 38 45.4V83.4C38 98.6 45.6 113.8 68.4 113.8C91.2 113.8 98.8 98.6 98.8 83.4V45.4C98.8 37.8 91.2 37.8 91.2 37.8C85.8192 37.8 76.1672 45.4 68.4 45.4C60.6328 45.4 51.5812 37.8 45.6 37.8ZM53.2 53C55.2156 53 57.1487 53.8007 58.574 55.226C59.9993 56.6513 60.8 58.5844 60.8 60.6C60.8 62.6156 59.9993 64.5487 58.574 65.974C57.1487 67.3993 55.2156 68.2 53.2 68.2C51.1843 68.2 49.2513 67.3993 47.826 65.974C46.4007 64.5487 45.6 62.6156 45.6 60.6C45.6 58.5844 46.4007 56.6513 47.826 55.226C49.2513 53.8007 51.1843 53 53.2 53ZM83.6 53C85.6156 53 87.5487 53.8007 88.974 55.226C90.3993 56.6513 91.2 58.5844 91.2 60.6C91.2 62.6156 90.3993 64.5487 88.974 65.974C87.5487 67.3993 85.6156 68.2 83.6 68.2C81.5844 68.2 79.6513 67.3993 78.226 65.974C76.8007 64.5487 76 62.6156 76 60.6C76 58.5844 76.8007 56.6513 78.226 55.226C79.6513 53.8007 81.5844 53 83.6 53ZM49.4 83.4H87.4C87.4 83.4 87.4 102.4 68.4 102.4C49.4 102.4 49.4 83.4 49.4 83.4Z" fill="#A91E1E"/>
</svg>
